<svg width="32" height="32" xmlns="http://www.w3.org/2000/svg"><rect x="15" y="5" width="1" height="1" fill="#000000"/><rect x="14" y="6" width="1" height="1" fill="#000000"/><rect x="15" y="6" width="1" height="1" fill="#000000"/><rect x="16" y="6" width="1" height="1" fill="#000000"/><rect x="13" y="7" width="1" height="1" fill="#000000"/><rect x="17" y="7" width="1" height="1" fill="#000000"/><rect x="13" y="8" width="1" height="1" fill="#000000"/><rect x="17" y="8" width="1" height="1" fill="#000000"/><rect x="13" y="9" width="1" height="1" fill="#000000"/><rect x="17" y="9" width="1" height="1" fill="#000000"/><rect x="13" y="10" width="1" height="1" fill="#000000"/><rect x="17" y="10" width="1" height="1" fill="#000000"/><rect x="13" y="11" width="1" height="1" fill="#000000"/><rect x="17" y="11" width="1" height="1" fill="#000000"/><rect x="13" y="12" width="1" height="1" fill="#000000"/><rect x="14" y="12" width="1" height="1" fill="#000000"/><rect x="15" y="12" width="1" height="1" fill="#000000"/><rect x="16" y="12" width="1" height="1" fill="#000000"/><rect x="17" y="12" width="1" height="1" fill="#000000"/><rect x="13" y="13" width="1" height="1" fill="#000000"/><rect x="17" y="13" width="1" height="1" fill="#000000"/><rect x="9" y="14" width="1" height="1" fill="#000000"/><rect x="13" y="14" width="1" height="1" fill="#000000"/><rect x="17" y="14" width="1" height="1" fill="#000000"/><rect x="21" y="14" width="1" height="1" fill="#000000"/><rect x="8" y="15" width="1" height="1" fill="#000000"/><rect x="10" y="15" width="1" height="1" fill="#000000"/><rect x="13" y="15" width="1" height="1" fill="#000000"/><rect x="14" y="15" width="1" height="1" fill="#000000"/><rect x="15" y="15" width="1" height="1" fill="#000000"/><rect x="16" y="15" width="1" height="1" fill="#000000"/><rect x="17" y="15" width="1" height="1" fill="#000000"/><rect x="20" y="15" width="1" height="1" fill="#000000"/><rect x="22" y="15" width="1" height="1" fill="#000000"/><rect x="8" y="16" width="1" height="1" fill="#000000"/><rect x="9" y="16" width="1" height="1" fill="#000000"/><rect x="10" y="16" width="1" height="1" fill="#000000"/><rect x="13" y="16" width="1" height="1" fill="#000000"/><rect x="17" y="16" width="1" height="1" fill="#000000"/><rect x="20" y="16" width="1" height="1" fill="#000000"/><rect x="21" y="16" width="1" height="1" fill="#000000"/><rect x="22" y="16" width="1" height="1" fill="#000000"/><rect x="8" y="17" width="1" height="1" fill="#000000"/><rect x="10" y="17" width="1" height="1" fill="#000000"/><rect x="11" y="17" width="1" height="1" fill="#000000"/><rect x="12" y="17" width="1" height="1" fill="#000000"/><rect x="13" y="17" width="1" height="1" fill="#000000"/><rect x="17" y="17" width="1" height="1" fill="#000000"/><rect x="18" y="17" width="1" height="1" fill="#000000"/><rect x="19" y="17" width="1" height="1" fill="#000000"/><rect x="20" y="17" width="1" height="1" fill="#000000"/><rect x="22" y="17" width="1" height="1" fill="#000000"/><rect x="8" y="18" width="1" height="1" fill="#000000"/><rect x="10" y="18" width="1" height="1" fill="#000000"/><rect x="13" y="18" width="1" height="1" fill="#000000"/><rect x="17" y="18" width="1" height="1" fill="#000000"/><rect x="20" y="18" width="1" height="1" fill="#000000"/><rect x="22" y="18" width="1" height="1" fill="#000000"/><rect x="8" y="19" width="1" height="1" fill="#000000"/><rect x="10" y="19" width="1" height="1" fill="#000000"/><rect x="13" y="19" width="1" height="1" fill="#000000"/><rect x="17" y="19" width="1" height="1" fill="#000000"/><rect x="20" y="19" width="1" height="1" fill="#000000"/><rect x="22" y="19" width="1" height="1" fill="#000000"/><rect x="6" y="20" width="1" height="1" fill="#000000"/><rect x="7" y="20" width="1" height="1" fill="#000000"/><rect x="8" y="20" width="1" height="1" fill="#000000"/><rect x="9" y="20" width="1" height="1" fill="#000000"/><rect x="10" y="20" width="1" height="1" fill="#000000"/><rect x="11" y="20" width="1" height="1" fill="#000000"/><rect x="12" y="20" width="1" height="1" fill="#000000"/><rect x="13" y="20" width="1" height="1" fill="#000000"/><rect x="17" y="20" width="1" height="1" fill="#000000"/><rect x="18" y="20" width="1" height="1" fill="#000000"/><rect x="19" y="20" width="1" height="1" fill="#000000"/><rect x="20" y="20" width="1" height="1" fill="#000000"/><rect x="21" y="20" width="1" height="1" fill="#000000"/><rect x="22" y="20" width="1" height="1" fill="#000000"/><rect x="23" y="20" width="1" height="1" fill="#000000"/><rect x="24" y="20" width="1" height="1" fill="#000000"/><rect x="9" y="21" width="1" height="1" fill="#000000"/><rect x="13" y="21" width="1" height="1" fill="#000000"/><rect x="14" y="21" width="1" height="1" fill="#000000"/><rect x="15" y="21" width="1" height="1" fill="#000000"/><rect x="16" y="21" width="1" height="1" fill="#000000"/><rect x="17" y="21" width="1" height="1" fill="#000000"/><rect x="21" y="21" width="1" height="1" fill="#000000"/><rect x="14" y="22" width="1" height="1" fill="#000000"/><rect x="15" y="22" width="1" height="1" fill="#000000"/><rect x="16" y="22" width="1" height="1" fill="#000000"/><rect x="9" y="23" width="1" height="1" fill="#000000"/><rect x="14" y="23" width="1" height="1" fill="#000000"/><rect x="15" y="23" width="1" height="1" fill="#000000"/><rect x="16" y="23" width="1" height="1" fill="#000000"/><rect x="21" y="23" width="1" height="1" fill="#000000"/><rect x="9" y="24" width="1" height="1" fill="#000000"/><rect x="13" y="24" width="1" height="1" fill="#000000"/><rect x="16" y="24" width="1" height="1" fill="#000000"/><rect x="21" y="24" width="1" height="1" fill="#000000"/><rect x="14" y="25" width="1" height="1" fill="#000000"/><rect x="17" y="25" width="1" height="1" fill="#000000"/><rect x="13" y="26" width="1" height="1" fill="#000000"/><rect x="16" y="26" width="1" height="1" fill="#000000"/><rect x="14" y="27" width="1" height="1" fill="#000000"/><rect x="17" y="27" width="1" height="1" fill="#000000"/><rect x="13" y="28" width="1" height="1" fill="#000000"/><rect x="16" y="28" width="1" height="1" fill="#000000"/></svg>